<svg id="Capa_1" data-name="Capa 1" xmlns="http://www.w3.org/2000/svg" xmlns:xlink="http://www.w3.org/1999/xlink" viewBox="0 0 240 240"><defs><style>.cls-1{fill:url(#Nueva_muestra_de_degradado_2);}.cls-2{fill:url(#Nueva_muestra_de_degradado_2-2);}.cls-3{fill:url(#Nueva_muestra_de_degradado_2-3);}.cls-4{fill:url(#Nueva_muestra_de_degradado_2-4);}.cls-5{fill:url(#degradado);}</style><linearGradient id="Nueva_muestra_de_degradado_2" x1="243.37" y1="80.44" x2="141.79" y2="213.15" gradientUnits="userSpaceOnUse"><stop offset="0" stop-color="#003092"/><stop offset="0.6" stop-color="#8f1aeb"/><stop offset="1" stop-color="#ffa3c0"/></linearGradient><linearGradient id="Nueva_muestra_de_degradado_2-2" x1="151.58" y1="27.82" x2="231.85" y2="145.78" xlink:href="#Nueva_muestra_de_degradado_2"/><linearGradient id="Nueva_muestra_de_degradado_2-3" x1="594.87" y1="80.44" x2="493.29" y2="213.15" gradientTransform="matrix(-1, 0, 0, 1, 591.5, 0)" xlink:href="#Nueva_muestra_de_degradado_2"/><linearGradient id="Nueva_muestra_de_degradado_2-4" x1="503.08" y1="27.82" x2="583.36" y2="145.78" gradientTransform="matrix(-1, 0, 0, 1, 591.5, 0)" xlink:href="#Nueva_muestra_de_degradado_2"/><linearGradient id="degradado" x1="137.37" y1="97.15" x2="107.62" y2="136.99" xlink:href="#Nueva_muestra_de_degradado_2"/></defs><title>Mesa de trabajo 1</title><path class="cls-1" d="M165.41,189.2h-26.3l52-72.09H237l-40.56,56.21A38.28,38.28,0,0,1,165.41,189.2Z"/><path class="cls-2" d="M168.43,49.94H142l72.09,98.52L237,117.11l-37.69-51.5A38.24,38.24,0,0,0,168.43,49.94Z"/><path class="cls-3" d="M74.59,189.2h26.3l-52-72.09H3l40.56,56.21A38.28,38.28,0,0,0,74.59,189.2Z"/><path class="cls-4" d="M71.57,49.94H98L25.94,148.46,3,117.11l37.69-51.5A38.24,38.24,0,0,1,71.57,49.94Z"/><path class="cls-5" d="M97,117.11c0-14,10.76-23.87,25.44-23.87,8.93,0,16,3.26,20.48,9.13L133.24,111c-2.67-3.39-5.87-5.34-10-5.34-6.39,0-10.7,4.43-10.7,11.41s4.31,11.41,10.7,11.41c4.11,0,7.31-2,10-5.34l9.72,8.67c-4.5,5.87-11.55,9.13-20.48,9.13C107.8,141,97,131.13,97,117.11Z"/></svg>